<mxfile host="65bd71144e">
    <diagram id="1DmJG_v_HB7CN_tW5fvp" name="Page-1">
        <mxGraphModel dx="1384" dy="1558" grid="1" gridSize="10" guides="1" tooltips="1" connect="1" arrows="1" fold="1" page="1" pageScale="1" pageWidth="827" pageHeight="1169" background="#ffffff" math="0" shadow="0">
            <root>
                <mxCell id="0"/>
                <mxCell id="1" parent="0"/>
                <mxCell id="22" value="singleton" style="edgeStyle=none;html=1;fontSize=10;fillColor=#f5f5f5;strokeColor=#666666;" parent="1" source="20" target="21" edge="1">
                    <mxGeometry relative="1" as="geometry">
                        <mxPoint as="offset"/>
                    </mxGeometry>
                </mxCell>
                <mxCell id="20" value="Object" style="html=1;fontSize=10;fillColor=#dae8fc;strokeColor=#6c8ebf;" parent="1" vertex="1">
                    <mxGeometry x="-70" y="120" width="110" height="50" as="geometry"/>
                </mxCell>
                <mxCell id="24" value="" style="edgeStyle=none;html=1;fontSize=10;fillColor=#f5f5f5;strokeColor=#666666;" parent="1" source="21" target="23" edge="1">
                    <mxGeometry relative="1" as="geometry"/>
                </mxCell>
                <mxCell id="21" value="&lt;span style=&quot;font-weight: normal&quot;&gt;#&lt;span&gt;Object&lt;/span&gt;&lt;/span&gt;" style="html=1;fontSize=10;fontStyle=1;fillColor=#f5f5f5;fontColor=#333333;strokeColor=#666666;" parent="1" vertex="1">
                    <mxGeometry x="120" y="120" width="110" height="50" as="geometry"/>
                </mxCell>
                <mxCell id="23" value="Class" style="html=1;fontSize=10;fillColor=#f5f5f5;fontColor=#333333;strokeColor=#666666;" parent="1" vertex="1">
                    <mxGeometry x="120" y="40" width="110" height="50" as="geometry"/>
                </mxCell>
                <mxCell id="29" value="klass" style="edgeStyle=none;html=1;fontSize=10;" parent="1" edge="1">
                    <mxGeometry relative="1" as="geometry">
                        <mxPoint x="560" y="245" as="sourcePoint"/>
                    </mxGeometry>
                </mxCell>
                <mxCell id="33" value="singleton" style="edgeStyle=none;html=1;fontSize=10;fillColor=#f5f5f5;strokeColor=#666666;" parent="1" source="30" target="31" edge="1">
                    <mxGeometry relative="1" as="geometry"/>
                </mxCell>
                <mxCell id="68" value="super" style="edgeStyle=none;html=1;entryX=0.5;entryY=1;entryDx=0;entryDy=0;fillColor=#dae8fc;strokeColor=#6c8ebf;" parent="1" source="30" target="20" edge="1">
                    <mxGeometry relative="1" as="geometry"/>
                </mxCell>
                <mxCell id="30" value="Car" style="html=1;fontSize=10;fillColor=#dae8fc;strokeColor=#6c8ebf;" parent="1" vertex="1">
                    <mxGeometry x="-70" y="380" width="110" height="50" as="geometry"/>
                </mxCell>
                <mxCell id="67" value="super" style="edgeStyle=none;html=1;fillColor=#f5f5f5;strokeColor=#666666;" parent="1" source="31" target="58" edge="1">
                    <mxGeometry relative="1" as="geometry"/>
                </mxCell>
                <mxCell id="31" value="&lt;span style=&quot;font-weight: normal&quot;&gt;#Car&lt;/span&gt;" style="html=1;fontSize=10;fontStyle=1;fillColor=#f5f5f5;fontColor=#333333;strokeColor=#666666;" parent="1" vertex="1">
                    <mxGeometry x="120" y="380" width="110" height="50" as="geometry"/>
                </mxCell>
                <mxCell id="40" value="singleton" style="edgeStyle=none;html=1;fontSize=10;fillColor=#f5f5f5;strokeColor=#666666;" parent="1" source="37" target="38" edge="1">
                    <mxGeometry relative="1" as="geometry"/>
                </mxCell>
                <mxCell id="37" value="car" style="html=1;fontSize=10;fillColor=#dae8fc;strokeColor=#6c8ebf;" parent="1" vertex="1">
                    <mxGeometry x="-260" y="530" width="110" height="50" as="geometry"/>
                </mxCell>
                <mxCell id="55" value="&lt;font color=&quot;#1e1e1e&quot;&gt;super&lt;/font&gt;" style="edgeStyle=none;html=1;fontSize=12;fontColor=#569CD6;fillColor=#dae8fc;strokeColor=#6c8ebf;" parent="1" source="38" target="54" edge="1">
                    <mxGeometry relative="1" as="geometry"/>
                </mxCell>
                <mxCell id="38" value="#car" style="html=1;fontSize=10;fillColor=#dae8fc;strokeColor=#6c8ebf;" parent="1" vertex="1">
                    <mxGeometry x="-70" y="530" width="110" height="50" as="geometry"/>
                </mxCell>
                <mxCell id="41" value="&lt;div style=&quot;font-family: &amp;#34;menlo&amp;#34; , &amp;#34;monaco&amp;#34; , &amp;#34;courier new&amp;#34; , monospace ; font-weight: bold ; font-size: 14px ; line-height: 21px&quot;&gt;&lt;div style=&quot;font-family: &amp;#34;menlo&amp;#34; , &amp;#34;monaco&amp;#34; , &amp;#34;courier new&amp;#34; , monospace ; line-height: 21px&quot;&gt;&lt;div style=&quot;color: rgb(212 , 212 , 212)&quot;&gt;&lt;span style=&quot;color: #c586c0&quot;&gt;module&lt;/span&gt; &lt;span style=&quot;color: #4ec9b0&quot;&gt;Movable&lt;/span&gt;&lt;/div&gt;&lt;div style=&quot;color: rgb(212 , 212 , 212)&quot;&gt;&lt;span style=&quot;color: #c586c0&quot;&gt;&amp;nbsp; def&lt;/span&gt; &lt;span style=&quot;color: #dcdcaa&quot;&gt;forward&lt;/span&gt; = &lt;span style=&quot;color: #9cdcfe&quot;&gt;puts&lt;/span&gt;(&lt;span style=&quot;color: #ce9178&quot;&gt;&quot;move forward!&quot;&lt;/span&gt;)&lt;/div&gt;&lt;div style=&quot;color: rgb(212 , 212 , 212)&quot;&gt;&lt;span style=&quot;color: #c586c0&quot;&gt;&amp;nbsp; def&lt;/span&gt; &lt;span style=&quot;color: #dcdcaa&quot;&gt;backward&lt;/span&gt; = &lt;span style=&quot;color: #9cdcfe&quot;&gt;puts&lt;/span&gt;(&lt;span style=&quot;color: #ce9178&quot;&gt;&quot;move backward!&quot;&lt;/span&gt;)&lt;/div&gt;&lt;div style=&quot;color: rgb(212 , 212 , 212)&quot;&gt;&lt;span style=&quot;color: #c586c0&quot;&gt;&amp;nbsp; def&lt;/span&gt; &lt;span style=&quot;color: #dcdcaa&quot;&gt;left&lt;/span&gt; = &lt;span style=&quot;color: #9cdcfe&quot;&gt;puts&lt;/span&gt;(&lt;span style=&quot;color: #ce9178&quot;&gt;&quot;move left!&quot;&lt;/span&gt;)&lt;/div&gt;&lt;div style=&quot;color: rgb(212 , 212 , 212)&quot;&gt;&lt;span style=&quot;color: #c586c0&quot;&gt;&amp;nbsp; def&lt;/span&gt; &lt;span style=&quot;color: #dcdcaa&quot;&gt;right&lt;/span&gt; = &lt;span style=&quot;color: #9cdcfe&quot;&gt;puts&lt;/span&gt;(&lt;span style=&quot;color: #ce9178&quot;&gt;&quot;move right!&quot;&lt;/span&gt;)&lt;/div&gt;&lt;div style=&quot;color: rgb(212 , 212 , 212)&quot;&gt;&lt;span style=&quot;color: rgb(197 , 134 , 192)&quot;&gt;&amp;nbsp; def&lt;/span&gt;&amp;nbsp;&lt;span style=&quot;color: rgb(220 , 220 , 170)&quot;&gt;drive&lt;/span&gt;&amp;nbsp;=&amp;nbsp;&lt;span style=&quot;color: rgb(156 , 220 , 254)&quot;&gt;puts&lt;/span&gt;(&lt;span style=&quot;color: rgb(206 , 145 , 120)&quot;&gt;&quot;moving!&quot;&lt;/span&gt;)&lt;br&gt;&lt;/div&gt;&lt;div style=&quot;color: rgb(212 , 212 , 212)&quot;&gt;&lt;span style=&quot;color: #c586c0&quot;&gt;end&lt;/span&gt;&lt;/div&gt;&lt;br&gt;&lt;div style=&quot;color: rgb(212 , 212 , 212)&quot;&gt;&lt;span style=&quot;color: #c586c0&quot;&gt;class&lt;/span&gt; &lt;span style=&quot;color: #4ec9b0&quot;&gt;Car&lt;/span&gt;&lt;/div&gt;&lt;div style=&quot;color: rgb(212 , 212 , 212)&quot;&gt;&lt;span style=&quot;color: #569cd6&quot;&gt;&amp;nbsp; extend&lt;/span&gt; &lt;span style=&quot;color: #4fc1ff&quot;&gt;Movable&lt;/span&gt;&lt;/div&gt;&lt;div style=&quot;color: rgb(212 , 212 , 212)&quot;&gt;&lt;span style=&quot;color: #c586c0&quot;&gt;&amp;nbsp; def&lt;/span&gt; &lt;span style=&quot;color: #dcdcaa&quot;&gt;initialize&lt;/span&gt;(&lt;span style=&quot;color: #9cdcfe&quot;&gt;kms&lt;/span&gt;)&lt;/div&gt;&lt;div style=&quot;color: rgb(212 , 212 , 212)&quot;&gt;&lt;span style=&quot;color: #9cdcfe&quot;&gt;&amp;nbsp; &amp;nbsp; @kms&lt;/span&gt; = &lt;span style=&quot;color: #9cdcfe&quot;&gt;kms&lt;/span&gt;&lt;/div&gt;&lt;div style=&quot;color: rgb(212 , 212 , 212)&quot;&gt;&lt;span style=&quot;color: #c586c0&quot;&gt;&amp;nbsp; end&lt;/span&gt;&lt;/div&gt;&lt;div style=&quot;color: rgb(212 , 212 , 212)&quot;&gt;&lt;span style=&quot;color: #c586c0&quot;&gt;&lt;br&gt;&lt;/span&gt;&lt;/div&gt;&lt;div&gt;&lt;span style=&quot;color: rgb(197 , 134 , 192)&quot;&gt;&amp;nbsp; def&lt;/span&gt;&lt;font color=&quot;#d4d4d4&quot;&gt;&amp;nbsp;&lt;/font&gt;&lt;font color=&quot;#dcdcaa&quot;&gt;self.forward&lt;/font&gt;&lt;/div&gt;&lt;div style=&quot;color: rgb(212 , 212 , 212)&quot;&gt;&lt;span style=&quot;color: rgb(220 , 220 , 170)&quot;&gt;&amp;nbsp; &amp;nbsp; puts&lt;/span&gt;&amp;nbsp;&lt;span style=&quot;color: rgb(206 , 145 , 120)&quot;&gt;&quot;Car is moving forward!&quot;&lt;/span&gt;&lt;/div&gt;&lt;div style=&quot;color: rgb(212 , 212 , 212)&quot;&gt;&lt;span style=&quot;color: rgb(197 , 134 , 192)&quot;&gt;&amp;nbsp; end&lt;/span&gt;&lt;/div&gt;&lt;div style=&quot;color: rgb(212 , 212 , 212)&quot;&gt;&lt;span style=&quot;color: rgb(197 , 134 , 192)&quot;&gt;&lt;br&gt;&lt;/span&gt;&lt;/div&gt;&lt;div style=&quot;color: rgb(212 , 212 , 212)&quot;&gt;&lt;span style=&quot;color: #c586c0&quot;&gt;&amp;nbsp; def&lt;/span&gt; &lt;span style=&quot;color: #dcdcaa&quot;&gt;drive&lt;/span&gt;&lt;/div&gt;&lt;div style=&quot;color: rgb(212 , 212 , 212)&quot;&gt;&lt;span style=&quot;color: #dcdcaa&quot;&gt;&amp;nbsp; &amp;nbsp; puts&lt;/span&gt; &lt;span style=&quot;color: #ce9178&quot;&gt;&quot;let's go!&quot;&lt;/span&gt;&lt;/div&gt;&lt;div style=&quot;color: rgb(212 , 212 , 212)&quot;&gt;&lt;span style=&quot;color: #c586c0&quot;&gt;&amp;nbsp; end&lt;/span&gt;&lt;/div&gt;&lt;div style=&quot;color: rgb(212 , 212 , 212)&quot;&gt;&lt;span style=&quot;color: #c586c0&quot;&gt;end&lt;/span&gt;&lt;/div&gt;&lt;br&gt;&lt;div style=&quot;color: rgb(212 , 212 , 212)&quot;&gt;&lt;span style=&quot;color: rgb(78 , 201 , 176)&quot;&gt;Car&lt;/span&gt;.&lt;span style=&quot;color: rgb(220 , 220 , 170)&quot;&gt;forward&lt;/span&gt;&lt;br&gt;&lt;/div&gt;&lt;div style=&quot;color: rgb(212 , 212 , 212)&quot;&gt;&lt;div style=&quot;font-family: &amp;#34;menlo&amp;#34; , &amp;#34;monaco&amp;#34; , &amp;#34;courier new&amp;#34; , monospace ; line-height: 21px&quot;&gt;&lt;span style=&quot;color: #6a9955&quot;&gt;# Car is moving forward!&lt;/span&gt;&lt;/div&gt;&lt;/div&gt;&lt;br&gt;&lt;/div&gt;&lt;/div&gt;" style="text;html=1;align=left;verticalAlign=middle;resizable=0;points=[];autosize=1;strokeColor=none;fillColor=#1E1E1E;spacing=2;labelBackgroundColor=#1e1e1e;" parent="1" vertex="1">
                    <mxGeometry x="-780" y="-25" width="350" height="560" as="geometry"/>
                </mxCell>
                <mxCell id="46" value="&lt;font color=&quot;#9cdcfe&quot;&gt;@kms&lt;/font&gt;" style="html=1;fontSize=10;fillColor=#1E1E1E;fontStyle=1" parent="1" vertex="1">
                    <mxGeometry x="-260" y="580" width="110" height="40" as="geometry"/>
                </mxCell>
                <mxCell id="50" value="&lt;font color=&quot;#569cd6&quot;&gt;:drive&lt;/font&gt;" style="html=1;fontSize=10;fillColor=#1E1E1E;fontStyle=1" parent="1" vertex="1">
                    <mxGeometry x="-70" y="580" width="110" height="40" as="geometry"/>
                </mxCell>
                <mxCell id="54" value="&lt;font color=&quot;#569cd6&quot;&gt;:drive&lt;/font&gt;" style="html=1;fontSize=10;fillColor=#1E1E1E;fontStyle=1" parent="1" vertex="1">
                    <mxGeometry x="-70" y="430" width="110" height="40" as="geometry"/>
                </mxCell>
                <mxCell id="66" value="super" style="edgeStyle=none;html=1;fillColor=#f5f5f5;strokeColor=#666666;" parent="1" source="56" target="21" edge="1">
                    <mxGeometry relative="1" as="geometry"/>
                </mxCell>
                <mxCell id="56" value="Movable" style="whiteSpace=wrap;html=1;fillColor=#e1d5e7;strokeColor=#9673a6;" parent="1" vertex="1">
                    <mxGeometry x="120" y="250" width="110" height="50" as="geometry"/>
                </mxCell>
                <mxCell id="58" value="&lt;font color=&quot;#fab002&quot;&gt;:forward, &lt;br&gt;:backward, &lt;br&gt;:left, :right, :drive&lt;/font&gt;" style="html=1;fontSize=10;fillColor=#1E1E1E;fontStyle=1" parent="1" vertex="1">
                    <mxGeometry x="120" y="300" width="110" height="50" as="geometry"/>
                </mxCell>
                <mxCell id="64" value="&lt;p style=&quot;line-height: 1&quot;&gt;&lt;/p&gt;&lt;h1 style=&quot;font-size: 12px&quot;&gt;&lt;u style=&quot;color: rgb(91 , 165 , 227) ; font-weight: normal&quot;&gt;Car&lt;/u&gt;&lt;span style=&quot;font-weight: normal ; font-size: 12px&quot;&gt;.ancestors&lt;/span&gt;&lt;/h1&gt;&lt;h1 style=&quot;font-size: 12px&quot;&gt;&lt;span style=&quot;font-size: 12px ; font-weight: normal&quot;&gt;=&amp;gt; [&lt;font color=&quot;#5ba5e3&quot;&gt;&lt;u&gt;Car&lt;/u&gt;&lt;/font&gt;&lt;/span&gt;,&lt;font color=&quot;#5ba5e3&quot; style=&quot;font-weight: normal&quot;&gt;&amp;nbsp;&lt;u&gt;Object&lt;/u&gt;&lt;/font&gt;&lt;span style=&quot;font-weight: normal&quot;&gt;,&lt;/span&gt;&lt;font color=&quot;#5ba5e3&quot; style=&quot;font-weight: normal&quot;&gt;&amp;nbsp;&lt;u&gt;PP::ObjectMixin&lt;/u&gt;&lt;/font&gt;&lt;span style=&quot;font-weight: normal&quot;&gt;,&amp;nbsp;&lt;/span&gt;&lt;font color=&quot;#5ba5e3&quot; style=&quot;font-weight: normal&quot;&gt;&lt;u&gt;Kernel&lt;/u&gt;&lt;/font&gt;&lt;span style=&quot;font-weight: normal&quot;&gt;,&amp;nbsp;&lt;/span&gt;&lt;font color=&quot;#5ba5e3&quot; style=&quot;font-weight: normal&quot;&gt;&lt;u&gt;BasicObject&lt;/u&gt;&lt;/font&gt;&lt;span style=&quot;font-weight: normal&quot;&gt;]&lt;/span&gt;&lt;/h1&gt;&lt;h1 style=&quot;font-size: 12px&quot;&gt;&lt;u style=&quot;color: rgb(91 , 165 , 227) ; font-weight: normal&quot;&gt;Car&lt;/u&gt;.&lt;span style=&quot;font-weight: normal&quot;&gt;singleton_methods&lt;/span&gt;&lt;/h1&gt;&lt;div&gt;&lt;span style=&quot;font-weight: normal&quot;&gt;=&amp;gt; [:drive]&lt;/span&gt;&lt;/div&gt;&lt;p&gt;&lt;/p&gt;" style="text;html=1;strokeColor=none;fillColor=#1E1E1E;spacing=5;spacingTop=-20;whiteSpace=wrap;overflow=hidden;rounded=0;labelBackgroundColor=none;fontColor=#FFFFFF;fontStyle=0;fontSize=12;" parent="1" vertex="1">
                    <mxGeometry x="280" y="400" width="400" height="90" as="geometry"/>
                </mxCell>
                <mxCell id="69" value="&lt;font color=&quot;#569cd6&quot;&gt;:forward,&lt;/font&gt;&lt;br style=&quot;color: rgb(250 , 176 , 2)&quot;&gt;&lt;span style=&quot;color: rgb(250 , 176 , 2)&quot;&gt;:backward,&lt;/span&gt;&lt;br style=&quot;color: rgb(250 , 176 , 2)&quot;&gt;&lt;span style=&quot;color: rgb(250 , 176 , 2)&quot;&gt;:left, :right, :drive&lt;/span&gt;&lt;font color=&quot;#569cd6&quot;&gt;&lt;br&gt;&lt;/font&gt;" style="html=1;fontSize=10;fillColor=#1E1E1E;fontStyle=1" parent="1" vertex="1">
                    <mxGeometry x="120" y="430" width="110" height="50" as="geometry"/>
                </mxCell>
                <mxCell id="70" value="&lt;span style=&quot;color: rgb(30, 30, 30); font-size: 12px; text-align: left;&quot;&gt;類似由 Car 的 Singleton Class&lt;/span&gt;&lt;br style=&quot;color: rgb(30, 30, 30); font-size: 12px; text-align: left;&quot;&gt;&lt;span style=&quot;color: rgb(30, 30, 30); font-size: 12px; text-align: left;&quot;&gt;去繼承 Movable&lt;/span&gt;" style="whiteSpace=wrap;html=1;fillColor=#ffe6cc;strokeColor=#d79b00;fontSize=12;" parent="1" vertex="1">
                    <mxGeometry x="280" y="300" width="180" height="70" as="geometry"/>
                </mxCell>
                <mxCell id="71" value="看不到 Singleton Class 的繼承鏈。" style="text;html=1;align=center;verticalAlign=middle;resizable=0;points=[];autosize=1;strokeColor=#d79b00;fillColor=#ffe6cc;fontSize=12;" parent="1" vertex="1">
                    <mxGeometry x="280" y="500" width="200" height="20" as="geometry"/>
                </mxCell>
                <mxCell id="72" value="繼承 Movable 所以&lt;br style=&quot;font-size: 11px;&quot;&gt;不會複寫 forward。" style="text;html=1;align=center;verticalAlign=middle;resizable=0;points=[];autosize=1;strokeColor=#d79b00;fillColor=#ffe6cc;fontSize=11;" parent="1" vertex="1">
                    <mxGeometry x="125" y="500" width="110" height="30" as="geometry"/>
                </mxCell>
            </root>
        </mxGraphModel>
    </diagram>
</mxfile>